<?xml version="1.0" standalone="no"?>
<!DOCTYPE svg PUBLIC "-//W3C//DTD SVG 20010904//EN"
 "http://www.w3.org/TR/2001/REC-SVG-20010904/DTD/svg10.dtd">
<svg version="1.0"
        xmlns="http://www.w3.org/2000/svg" width="20.000000pt" height="20.000000pt" viewBox="0 0 200.000000 200.000000" preserveAspectRatio="xMidYMid meet">

        <g transform="translate(0.000000,200.000000) scale(0.100000,-0.100000)" fill="#3C95F0" stroke="none">
                <path d="M895 1990 c-240 -26 -450 -132 -617 -309 -241 -257 -328 -602 -238
-945 120 -455 583 -775 1053 -726 253 26 457 126 629 309 241 257 328 602 238
945 -56 211 -210 429 -393 555 -190 130 -448 196 -672 171z m560 -531 c102
-29 149 -156 95 -259 -48 -92 -487 -839 -503 -857 -20 -23 -61 -30 -83 -15 -6
4 -130 214 -275 466 -244 426 -263 463 -262 506 1 75 34 124 103 154 29 13
104 15 460 16 281 0 439 -4 465 -11z"/>
                <path d="M565 1324 c-9 -9 -14 -23 -11 -30 3 -7 89 -158 191 -336 l185 -323 0
353 0 352 -174 0 c-148 0 -177 -2 -191 -16z"/>
                <path d="M1070 988 l0 -353 33 55 c18 30 104 178 191 328 156 268 158 273 142
297 l-16 25 -175 0 -175 0 0 -352z"/>
        </g>
</svg>

